<svg width="16" height="16" viewBox="0 0 16 16" fill="none" xmlns="http://www.w3.org/2000/svg">
<path fill-rule="evenodd" clip-rule="evenodd" d="M7.99976 1.43962C10.1362 1.43962 10.3892 1.44775 11.2329 1.48624C12.013 1.52184 12.4367 1.65218 12.7186 1.76172C13.0921 1.90685 13.3586 2.08025 13.6385 2.3602C13.9185 2.64015 14.092 2.9067 14.2371 3.28012C14.3466 3.56207 14.477 3.98569 14.5126 4.76571C14.5511 5.60937 14.5592 5.86239 14.5592 7.99865C14.5592 10.1349 14.5511 10.3879 14.5126 11.2316C14.477 12.0116 14.3466 12.4352 14.2371 12.7172C14.092 13.0906 13.9185 13.3571 13.6385 13.6371C13.3586 13.917 13.0921 14.0904 12.7186 14.2355C12.4367 14.3451 12.013 14.4755 11.2329 14.5111C10.3893 14.5495 10.1363 14.5577 7.99976 14.5577C5.86324 14.5577 5.61016 14.5495 4.7666 14.5111C3.9865 14.4755 3.56282 14.3451 3.28088 14.2355C2.90741 14.0904 2.64081 13.917 2.36084 13.6371C2.08087 13.3571 1.90756 13.0906 1.76245 12.7172C1.65287 12.4352 1.52255 12.0116 1.48694 11.2316C1.44845 10.3879 1.44031 10.1349 1.44031 7.99865C1.44031 5.86239 1.44845 5.60937 1.48694 4.76574C1.52255 3.98569 1.65287 3.56207 1.76245 3.28012C1.90756 2.9067 2.08087 2.64015 2.36084 2.3602C2.64081 2.08025 2.90741 1.90685 3.28088 1.76172C3.56282 1.65218 3.98653 1.52184 4.7666 1.48624C5.61032 1.44775 5.86336 1.43962 7.99976 1.43962ZM8.50476 -0.00175095C8.58283 -0.00168105 8.65799 -0.0015894 8.73035 -0.00148011L9.31189 9.5343e-05C10.3453 0.00451078 10.6586 0.0169897 11.2986 0.0461915C12.1502 0.0850638 12.7318 0.22029 13.2407 0.418081C13.7669 0.622542 14.2132 0.89611 14.658 1.34089C15.1028 1.78566 15.3763 2.23183 15.5808 2.75794C15.7786 3.26687 15.9139 3.84843 15.9528 4.70003C15.9609 4.87781 15.9677 5.03037 15.9734 5.18016L15.9797 5.36001C15.9924 5.75302 15.998 6.18794 16 7.05911V8.93819C15.9982 9.74235 15.9932 10.1748 15.9825 10.5457L15.9767 10.7274C15.9703 10.9069 15.9625 11.0839 15.9528 11.2973C15.9139 12.1489 15.7786 12.7304 15.5808 13.2394C15.3763 13.7655 15.1028 14.2116 14.658 14.6564C14.2132 15.1012 13.7669 15.3748 13.2407 15.5792C12.7318 15.777 12.1502 15.9122 11.2986 15.9511C11.1208 15.9592 10.9682 15.966 10.8184 15.9718L10.6385 15.9781C10.2455 15.9907 9.81056 15.9964 8.93933 15.9984H7.06018C5.71984 15.9953 5.4121 15.9836 4.70093 15.9511C3.84927 15.9122 3.26763 15.777 2.75867 15.5792C2.23253 15.3748 1.78635 15.1012 1.34155 14.6564C0.896743 14.2116 0.623181 13.7654 0.418701 13.2394C0.220901 12.7304 0.0856229 12.1489 0.0467529 11.2973C0.0370129 11.0839 0.0291671 10.9069 0.0228271 10.7274L0.0169678 10.5457C0.00804777 10.2366 0.00306035 9.88478 0.000610352 9.31073L-0.000854492 8.72923C-0.000964492 8.65688 -0.0011507 8.58176 -0.0012207 8.50371V7.4936C-0.0011507 7.41554 -0.000964492 7.34042 -0.000854492 7.26807L0.000610352 6.68657C0.00502035 5.65327 0.0175429 5.34002 0.0467529 4.70003C0.0856229 3.84843 0.220901 3.26687 0.418701 2.75794C0.623181 2.23183 0.896743 1.78566 1.34155 1.34089C1.78635 0.89611 2.23253 0.622542 2.75867 0.418081C3.26763 0.22029 3.84927 0.0850638 4.70093 0.0461915C5.34098 0.0169897 5.65414 0.00451078 6.6875 9.5343e-05L7.26904 -0.00148011C7.3414 -0.0015894 7.41656 -0.00168105 7.49463 -0.00175095H8.50476ZM8.01562 3.90309C5.74481 3.90309 3.90393 5.74385 3.90393 8.01451C3.90393 10.2852 5.74481 12.1259 8.01562 12.1259C10.2864 12.1259 12.1273 10.2852 12.1273 8.01451C12.1273 5.74385 10.2864 3.90309 8.01562 3.90309ZM8.01562 5.34569C9.48965 5.34569 10.6846 6.54058 10.6846 8.01451C10.6846 9.48844 9.48965 10.6833 8.01562 10.6833C6.54159 10.6833 5.34668 9.48844 5.34668 8.01451C5.34668 6.54058 6.54159 5.34569 8.01562 5.34569ZM12.2543 2.76015C11.7282 2.76015 11.3018 3.18656 11.3018 3.71259C11.3018 4.23862 11.7282 4.66506 12.2543 4.66506C12.7803 4.66506 13.2068 4.23862 13.2068 3.71259C13.2068 3.18656 12.7803 2.76015 12.2543 2.76015Z" fill="#D9D9D9"/>
</svg>
