<svg width="15" height="15" viewBox="0 0 15 15" fill="none" xmlns="http://www.w3.org/2000/svg">
<path fill-rule="evenodd" clip-rule="evenodd" d="M7.50092 1.35131C9.5038 1.35131 9.74104 1.35893 10.532 1.39501C11.2633 1.42839 11.6605 1.55058 11.9249 1.65327C12.275 1.78934 12.5248 1.9519 12.7873 2.21436C13.0498 2.47682 13.2123 2.72671 13.3484 3.07679C13.4511 3.34112 13.5733 3.73828 13.6067 4.46955C13.6428 5.2605 13.6504 5.49771 13.6504 7.50048C13.6504 9.50324 13.6428 9.74045 13.6067 10.5314C13.5733 11.2627 13.4511 11.6598 13.3484 11.9242C13.2123 12.2742 13.0498 12.5241 12.7873 12.7866C12.5248 13.049 12.275 13.2116 11.9249 13.3476C11.6605 13.4504 11.2633 13.5726 10.532 13.6059C9.74116 13.642 9.50391 13.6496 7.50092 13.6496C5.49793 13.6496 5.26067 13.642 4.46983 13.6059C3.73849 13.5726 3.34129 13.4504 3.07697 13.3476C2.72684 13.2116 2.4769 13.049 2.21443 12.7866C1.95196 12.5241 1.78948 12.2742 1.65344 11.9242C1.55071 11.6598 1.42853 11.2627 1.39515 10.5314C1.35906 9.74045 1.35143 9.50324 1.35143 7.50048C1.35143 5.49771 1.35906 5.2605 1.39515 4.46958C1.42853 3.73828 1.55071 3.34112 1.65344 3.07679C1.78948 2.72671 1.95196 2.47682 2.21443 2.21436C2.4769 1.9519 2.72684 1.78934 3.07697 1.65327C3.34129 1.55058 3.73852 1.42839 4.46983 1.39501C5.26082 1.35893 5.49804 1.35131 7.50092 1.35131ZM7.97436 0C8.04755 6.55313e-05 8.11801 0.000151447 8.18584 0.000253916L8.73104 0.00173092C9.69983 0.00587045 9.99354 0.0175696 10.5936 0.0449467C11.392 0.0813899 11.9372 0.208166 12.4143 0.393598C12.9076 0.585282 13.326 0.841756 13.743 1.25874C14.16 1.67572 14.4165 2.09401 14.6082 2.58725C14.7936 3.06437 14.9204 3.6096 14.9569 4.40798C14.9645 4.57465 14.9708 4.71768 14.9762 4.85811L14.9821 5.02672C14.994 5.39517 14.9993 5.80291 15.0011 6.61964V8.38131C14.9994 9.13521 14.9948 9.54063 14.9848 9.88834L14.9793 10.0587C14.9733 10.227 14.966 10.393 14.9569 10.593C14.9204 11.3914 14.7936 11.9366 14.6082 12.4137C14.4165 12.9069 14.16 13.3252 13.743 13.7422C13.326 14.1592 12.9076 14.4157 12.4143 14.6073C11.9372 14.7928 11.392 14.9196 10.5936 14.956C10.4269 14.9636 10.2838 14.97 10.1434 14.9754L9.97478 14.9813C9.60631 14.9931 9.19855 14.9985 8.38177 15.0003H6.62006C5.3635 14.9975 5.07499 14.9864 4.40826 14.956C3.60983 14.9196 3.06454 14.7928 2.58739 14.6073C2.09414 14.4157 1.67585 14.1592 1.25885 13.7422C0.841841 13.3252 0.585377 12.9069 0.393677 12.4137C0.208239 11.9366 0.0814159 11.3914 0.0449753 10.593C0.035844 10.393 0.0284886 10.227 0.0225449 10.0587L0.0170517 9.88834C0.0086892 9.59858 0.00401349 9.26875 0.00171661 8.73057L0.000343323 8.1854C0.000240198 8.11757 6.5625e-05 8.04715 0 7.97397V7.02698C6.5625e-05 6.9538 0.000240198 6.88338 0.000343323 6.81554L0.00171661 6.27038C0.00585099 5.30165 0.0175909 5.00798 0.0449753 4.40798C0.0814159 3.6096 0.208239 3.06437 0.393677 2.58725C0.585377 2.09401 0.841841 1.67572 1.25885 1.25874C1.67585 0.841756 2.09414 0.585282 2.58739 0.393598C3.06454 0.208166 3.60983 0.0813899 4.40826 0.0449467C5.00831 0.0175696 5.3019 0.00587045 6.27068 0.00173092L6.81587 0.000253916C6.88371 0.000151447 6.95417 6.55313e-05 7.02736 0H7.97436ZM7.51579 3.66084C5.3869 3.66084 3.66108 5.38657 3.66108 7.51534C3.66108 9.64411 5.3869 11.3698 7.51579 11.3698C9.64468 11.3698 11.3705 9.64411 11.3705 7.51534C11.3705 5.38657 9.64468 3.66084 7.51579 3.66084ZM7.51579 5.01329C8.89769 5.01329 10.0179 6.13351 10.0179 7.51534C10.0179 8.89717 8.89769 10.0174 7.51579 10.0174C6.13389 10.0174 5.01366 8.89717 5.01366 7.51534C5.01366 6.13351 6.13389 5.01329 7.51579 5.01329ZM11.4895 2.58932C10.9963 2.58932 10.5965 2.98908 10.5965 3.48224C10.5965 3.9754 10.9963 4.37519 11.4895 4.37519C11.9827 4.37519 12.3825 3.9754 12.3825 3.48224C12.3825 2.98908 11.9827 2.58932 11.4895 2.58932Z" fill="#EDDBBE"/>
</svg>
