<svg width="16" height="17" viewBox="0 0 16 17" fill="none" xmlns="http://www.w3.org/2000/svg">
<path fill-rule="evenodd" clip-rule="evenodd" d="M12.0465 11.6309C13.1048 10.3979 13.7461 8.78302 13.7461 7.0154C13.7568 3.1528 10.6677 -0.000556946 6.87305 -0.000556946C3.08913 -0.000556946 0 3.1528 0 7.0154C0 10.878 3.08913 14.0314 6.87305 14.0314C8.16643 14.0314 9.3636 13.6604 10.4004 13.0275L13.9813 16.6828C14.195 16.901 14.4623 16.9992 14.7402 16.9992C15.0181 16.9992 15.2853 16.8901 15.4991 16.6828C15.916 16.2682 15.916 15.5808 15.4991 15.1552L12.0465 11.6309ZM6.87305 2.1817C9.48118 2.1817 11.6083 4.35304 11.6083 7.0154C11.6083 9.67775 9.48118 11.8491 6.87305 11.8491C4.26493 11.8491 2.13781 9.68866 2.13781 7.0154C2.13781 4.35304 4.26493 2.1817 6.87305 2.1817Z" fill="#D9D9D9"/>
</svg>
