<svg width="19" height="15" viewBox="0 0 19 15" fill="none" xmlns="http://www.w3.org/2000/svg">
<path d="M5.10251 -0.00056839H1.01441C0.456483 -0.00056839 0 0.457363 0 1.01706C0 1.57675 0.456483 2.03468 1.01441 2.03468H3.5606L6.52269 12.618H7.20235C6.97918 12.8724 6.83716 13.198 6.83716 13.5746C6.83716 14.3581 7.47624 14.9992 8.25734 14.9992C9.03844 14.9992 9.67752 14.3581 9.67752 13.5746C9.67752 13.2082 9.5355 12.8724 9.31233 12.618H13.4511C13.228 12.8724 13.086 13.198 13.086 13.5746C13.086 14.3581 13.725 14.9992 14.5061 14.9992C15.2872 14.9992 15.9263 14.3581 15.9263 13.5746C15.9263 13.2082 15.7843 12.8724 15.5611 12.618H15.6423C16.2002 12.618 16.6567 12.1601 16.6567 11.6004C16.6567 11.0407 16.2002 10.5827 15.6423 10.5827H8.05446L7.85158 9.85005H15.835C16.5248 9.85005 17.1233 9.38194 17.2755 8.71031L19 2.57402H5.82275L5.10251 -0.00056839Z" fill="#D9D9D9"/>
</svg>
